<svg width="27" height="31" viewBox="0 0 27 31" fill="none" xmlns="http://www.w3.org/2000/svg">
<path d="M7.66667 24.2498C8.46875 24.2498 9.125 23.5936 9.125 22.7915V8.20817C9.125 7.40609 8.46875 6.74984 7.66667 6.74984C6.86458 6.74984 6.20833 7.40609 6.20833 8.20817V22.7915C6.20833 23.5936 6.86458 24.2498 7.66667 24.2498ZM13.5 30.0832C14.3021 30.0832 14.9583 29.4269 14.9583 28.6248V2.37484C14.9583 1.57275 14.3021 0.916504 13.5 0.916504C12.6979 0.916504 12.0417 1.57275 12.0417 2.37484V28.6248C12.0417 29.4269 12.6979 30.0832 13.5 30.0832ZM1.83333 18.4165C2.63542 18.4165 3.29167 17.7603 3.29167 16.9582V14.0415C3.29167 13.2394 2.63542 12.5832 1.83333 12.5832C1.03125 12.5832 0.375 13.2394 0.375 14.0415V16.9582C0.375 17.7603 1.03125 18.4165 1.83333 18.4165ZM19.3333 24.2498C20.1354 24.2498 20.7917 23.5936 20.7917 22.7915V8.20817C20.7917 7.40609 20.1354 6.74984 19.3333 6.74984C18.5313 6.74984 17.875 7.40609 17.875 8.20817V22.7915C17.875 23.5936 18.5313 24.2498 19.3333 24.2498ZM23.7083 14.0415V16.9582C23.7083 17.7603 24.3646 18.4165 25.1667 18.4165C25.9688 18.4165 26.625 17.7603 26.625 16.9582V14.0415C26.625 13.2394 25.9688 12.5832 25.1667 12.5832C24.3646 12.5832 23.7083 13.2394 23.7083 14.0415Z" fill="#E5E5E5" fill-opacity="0.54"/>
</svg>
