<svg width="31" height="31" viewBox="0 0 31 31" fill="none" xmlns="http://www.w3.org/2000/svg">
<path d="M27.1667 10.673V6.7501C27.1667 5.14593 25.8542 3.83343 24.25 3.83343H20.3271L17.5563 1.0626C16.4188 -0.0749023 14.5667 -0.0749023 13.4292 1.0626L10.6729 3.83343H6.75001C5.14584 3.83343 3.83334 5.14593 3.83334 6.7501V10.673L1.06251 13.4438C-0.0749939 14.5813 -0.0749939 16.4334 1.06251 17.5709L3.83334 20.3418V24.2501C3.83334 25.8543 5.14584 27.1668 6.75001 27.1668H10.6729L13.4438 29.9376C14.5813 31.0751 16.4333 31.0751 17.5708 29.9376L20.3417 27.1668H24.25C25.8542 27.1668 27.1667 25.8543 27.1667 24.2501V20.3272L29.9375 17.5563C31.075 16.4188 31.075 14.5668 29.9375 13.4293L27.1667 10.673ZM15.5 24.2501C10.6729 24.2501 6.75001 20.3272 6.75001 15.5001C6.75001 10.673 10.6729 6.7501 15.5 6.7501C20.3271 6.7501 24.25 10.673 24.25 15.5001C24.25 20.3272 20.3271 24.2501 15.5 24.2501ZM15.5 9.66676C12.2771 9.66676 9.66667 12.2772 9.66667 15.5001C9.66667 18.723 12.2771 21.3334 15.5 21.3334C18.7229 21.3334 21.3333 18.723 21.3333 15.5001C21.3333 12.2772 18.7229 9.66676 15.5 9.66676Z" fill="#E5E5E5" fill-opacity="0.54"/>
</svg>
